<?xml version="1.0" encoding="utf-8"?>
<!-- Generator: Adobe Illustrator 27.0.0, SVG Export Plug-In . SVG Version: 6.00 Build 0)  -->
<svg version="1.1" id="Layer_1" xmlns="http://www.w3.org/2000/svg" xmlns:xlink="http://www.w3.org/1999/xlink" x="0px" y="0px"
	 viewBox="0 0 1000 500" style="enable-background:new 0 0 1000 500;" xml:space="preserve">
<style type="text/css">
	.st0{fill:#FFFFFF;}
</style>
<g>
	<path class="st0" d="M648.1,237.5c-7.1-9.9-15.8-18.4-25-26.3c-7.7-6.7-15.9-13-24.7-18.1c-9.4-5.4-18.9-10.6-29.5-13.7
		c-6.6-2-12.9-4.9-19.6-6.8c-8.2-2.4-16.6-4.2-24.9-6.2c-2.4-0.6-4.3-1.8-5.9-3.6c-2.5-2.8-6.9-3.8-9.7-1.3c-3.3,2.9-6.8,2.7-10.5,2
		c-2.8-0.5-5.5-0.7-8.3-0.8c-10.6-0.1-21.2-0.3-31.7,1.4c-8.7,1.4-17.6,1.6-26.2,3.9c-9.4,2.4-18.9,4.4-27.8,8.4
		c-10.4,4.5-20.8,8.9-30.1,15.4c-3.9,2.7-7.6,5.5-11.6,8c-12.9,7.9-19.5,19.3-19.9,34.4c-0.1,5.5,2.9,8.5,8.3,8.9
		c1.5,0.1,3,0.1,4.5,0.4c9.4,2.1,18.9,3.3,28.5,4c12.2,0.9,24.1,3,36.2,4.3c3.6,0.4,5.7-0.8,6.5-4.4c0.3-1.1,0.4-2.3,0.6-3.5
		c0.2-1.2,0.3-3,2-2.8c1.9,0.2,1.1,2,1.2,3.1c0.2,5.9,3.7,10.5,10.3,10.1c2.2-0.1,4.5,0.1,6.7,0.6c7.1,1.8,14.4,1.5,21.6,2.5
		c4.6,0.6,9.2,1.6,13.9,1.8c8.5,0.3,10.9,4.4,9.6,12c-1.4,7.7-2.8,15.4-2.8,23.2c-0.4,34.8-0.5,69.5-0.1,104.3
		c0.1,7-8.1,13.6-14.1,13c-5.6-0.6-9.5-4-14-6.7c-2.8-1.6-5.6-4-9.1-1.6c-2.6,1.8-5,4-7.8,5.6c-3.2,1.8-6.2,4.9-10.5,2.8
		c-1.9-1-3.3-2.7-5-3.8c-2.6-1.7-4.1-5-7.9-4.9c-5.8,0.2-10.4,2.9-14.7,6.2c-2.8,2.2-5.6,3-9.2,2c-3.6-1.1-6.2-3.7-9.2-5.8
		c-4.3-3-8.4-3.3-12.6-0.2c-2.2,1.6-4.5,3.2-7.1,4.3c-2.6,1-4.9,2.7-6.5,5c-1.4,2-1.6,4.2-0.7,6.4c0.8,1.9,2.7,2.3,4.4,1.9
		c4-0.9,8-1.5,11.6-4.2c5.8-4.5,4.6-4.1,9.9-0.7c1.5,1,2.9,2,4.2,3.4c4,4.2,8.9,4.8,14,2.1c3.1-1.6,5.6-3.9,8.5-5.6
		c2.7-1.6,5.7-2.9,8.7-1.1c2.2,1.3,4.2,2.9,6.2,4.5c4.5,3.4,9.1,5.7,14.7,2.3c2.1-1.3,3.7-3.2,5.6-4.8c6.1-5.3,14.9-1.8,18.2,2.6
		c2.6,3.4,6.5,4.8,10.5,3.3c3.4-1.3,6.9-2.6,9.7-5.3c4.1-3.9,7.6-4.4,11.2-2.1c1.9,1.2,3.7,2.5,5.3,4.1c5.2,5.2,8.9,5.6,14.9,1.4
		c2.1-1.5,4.1-3.2,6.3-4.4c3.3-1.8,6.5-5.5,10.8-1.8c1.9,1.6,4,2.9,5.8,4.6c4.8,4.6,9.4,5.1,14.7,1.3c0.9-0.6,1.7-1.3,2.6-1.9
		c8.6-6.5,10.7-6.4,19.2,0.6c6.3,5.2,11.3,5.5,17.4,0.3c0.9-0.8,1.8-1.6,2.7-2.3c5.2-4.5,8.2-4.6,13.6-0.7c1.8,1.3,3.6,2.7,5.5,3.8
		c2.7,1.5,5.6,1.3,8.3,0c0.8-0.4,1.4-1.1,1.2-2.1c-0.4-2.4-0.7-5.1-3.1-6.4c-3.4-1.9-6.2-4.6-9.5-6.5c-5.8-3.3-11.5-4.5-17.2,0.5
		c-1.3,1.1-2.8,2-4.2,2.9c-2.2,1.3-4.6,2.9-7.2,2c-4.7-1.7-9-4.3-12.7-7.8c-2.6-2.5-7.6-2.8-10.1-0.3c-2.9,2.9-6.4,4.9-9.8,7.1
		c-2.3,1.5-4.7,1.5-7.1-0.4c-2.9-2.3-6.2-4.2-9.3-6.3c-2.3-1.5-4.7-2-7.3-1.4c-5.1,1.1-9,4.4-12.8,7.5c-1.9,1.5-3.6,2-5.9,1.7
		c-5.9-0.7-11.2-8.2-11.2-15.3c0-28.7,0-57.3,0-86c-0.4-14.7,1.2-29.2,3.4-43.7c0.6-4,2.2-5.4,6.4-5c6.3,0.5,12.5,1.2,18.8,2
		c12,1.6,23.9,3.2,35.9,4c5.9,0.4,8.3-1.5,9.9-7.1c0.2-0.6,0.3-1.2,0.6-1.8c0.3-0.6,0.6-1.2,1.4-1.1c0.8,0,1.2,0.6,1.3,1.2
		c0.3,1.4,0.2,2.8,0.6,4.1c0.8,2.8,0.6,6.3,4.2,7.2c2.4,0.6,4.8,0.8,7.3,1.1c11.7,1.3,23.3,2.6,35,3.8c8.8,0.9,17.6,1.8,26.5,2.6
		c3.5,0.3,4.7-0.7,5.1-4.2c0.3-2.4,0.8-4.8,1.4-7.2c1.4-5.5,1.7-11.1-1.1-16.2C653.7,246.1,651.1,241.7,648.1,237.5z M559.8,190.7
		c-33.9-4.4-68-7.8-101.9-12.4C492.9,173.7,526.9,177.3,559.8,190.7z M424.4,193.1c4.7,1,9.6,0.9,14.3,1.7c15.3,2.6,30.7,3.4,46,5.4
		c14.7,2,29.4,3.5,44,5.8c9,1.4,18.2,1.8,27.3,3c7.5,0.9,14.9,2.5,22.5,3c6.6,0.4,13.1,1.8,19.7,2.1c5.3,0.3,10.3,1.3,14.1,5.5
		c0.5,0.6,1.6,1.1,1,2.1c-0.4,0.8-1.3,0.4-2.1,0.3c-15.4-1.4-30.7-3.7-46.1-5.6c-6.3-0.8-12.7-1.6-19.1-2c-4.6-0.2-9.3-1.1-13.9-1.7
		c-18.1-2.5-36.2-4.5-54.4-6.5c-7.6-0.8-15.2-2-22.9-2.7c-12-1-23.9-3.1-35.8-4.7c-6.6-0.8-13.2-1.4-19.7-2.1
		c-1.3-0.1-2.8,0-3.9-1.2C404.8,189.7,414.6,191.1,424.4,193.1z M636.7,249.6c-19.5-2.4-38.9-5.1-58.5-7.1
		c-18.8-1.9-37.4-5.3-56.2-7c-11.1-1-22-3.1-33.1-3.7c-10.6-0.6-21.2-2.7-31.8-4c-11.6-1.3-23.2-1.8-34.7-3.8
		c-13.5-2.4-27.3-2-40.5-5.7c-3.1-0.9-6.4-0.3-9.6-0.4c-0.5,0-1.1,0.1-1.6,0c-2-0.3-5,0.1-4.9-2.8c0.1-2.4,2.8-2.8,5-2.9
		c0.3,0,0.6,0,1.4,0c13.6,1.9,27.8,2.4,41.8,4.7c11.3,1.9,22.7,2.8,34,4.2c3.5,0.4,7,0.7,10.5,1.3c11.8,2.3,23.9,2.2,35.5,4.9
		c6.4,1.5,12.8,0.3,19.1,1.6c6.3,1.4,12.8,1.2,19.1,1.9c9.5,1,19,2.6,28.5,3.8c6.6,0.8,13.2,0.9,19.7,2c6,1.1,12,1.4,17.9,2.8
		c4.3,1,8.9,1,13.3,1.5c7.1,0.8,14.2,2.2,21.4,2c2.9-0.1,4.4,2,5.4,4.3C639.3,249.1,638.5,249.8,636.7,249.6z"/>
	<path class="st0" d="M118.6,145.7c-2.6-2.8-5.6-5.2-9.1-7.2c-3.5-2-7.2-3.7-11.1-5c-3.9-1.3-7.9-2.4-11.8-3.2
		c-3.3-0.6-6.6-1.2-10-1.7c-3.4-0.5-6.5-1.1-9.4-1.7c-2.9-0.6-5.4-1.4-7.4-2.3c-2-0.9-3.4-2.2-3.9-3.7c-1.3-3.3-1.2-6,0.2-8.2
		c1.4-2.2,3.4-3.9,6-5.1c2.6-1.2,5.6-2,8.9-2.2c3.3-0.3,6.3-0.2,8.8,0.3c2.6,0.6,5.2,1.2,8,2c2.7,0.8,5.5,1.7,8.3,2.7
		c2.8-1,3.8-2.9,2.8-5.6c-0.2-0.7-1.1-2.1-2.5-4.3c-1.4-2.2-3.1-4.5-5-6.8c-1.9-2.3-3.9-4.2-6-5.8c-2.1-1.6-3.8-2-5.3-1.4
		c-0.5,0.4-0.8,0.9-1.1,1.5c-0.3,0.6-0.6,1.2-0.9,1.8c-0.3,0.6-0.7,1.1-1.1,1.6c-0.4,0.5-0.9,0.8-1.6,0.9c-1.3,0.4-3,0.7-5,1.1
		c-2,0.4-4,0.7-5.9,1.2c-2,0.4-3.9,0.8-5.7,1.3c-1.8,0.4-3.4,0.9-4.5,1.3c-4.6,1.8-8.6,4-12,6.8c-3.4,2.8-6.2,5.8-8.2,9.1
		c-2,3.3-3.2,6.7-3.6,10.3c-0.4,3.5,0.2,7,1.6,10.5c1.2,3,2.8,5.5,4.8,7.5c2,2,4.5,3.7,7.6,5.1c3.1,1.4,6.9,2.5,11.4,3.5
		c4.5,1,10,1.9,16.3,2.9c3.4,0.5,6.5,1.1,9.6,1.6c3,0.5,5.8,1.3,8.3,2.3c2.5,1,4.7,2.4,6.5,4c1.8,1.7,3.3,4,4.3,6.9
		c1.5,4.2,1,7.7-1.4,10.7c-2.5,2.9-5.9,5-10.3,6.3c-4.4,1.3-9.5,1.6-15.2,1c-5.7-0.6-11-2.3-16.1-5.3c-0.3-0.2-0.8-0.2-1.3,0.1
		c-0.6,0.3-1.1,0.7-1.6,1.3c-0.5,0.6-0.8,1.2-1,2c-0.2,0.7-0.2,1.4,0.1,2.1c0.5,1.1,1.4,2.8,2.8,5.2c1.4,2.3,3.1,4.7,4.9,6.9
		c1.9,2.3,3.7,4.2,5.7,5.7c1.9,1.5,3.6,2,5.1,1.4c1.1-0.4,1.9-1.3,2.4-2.7c0.5-1.4,1.4-2.6,2.5-3.6c0.7-0.6,2-1.1,4-1.5
		c2-0.4,4.1-0.8,6.3-1.1c2.2-0.3,4.4-0.6,6.5-1c2.1-0.3,3.7-0.7,4.8-1.1c10.5-4,18.1-9.1,22.8-15.8c4.7-6.6,5.6-14.3,2.6-23.1
		C123.1,151.6,121.2,148.5,118.6,145.7z"/>
	<path class="st0" d="M216.2,152.2c-0.1-0.6-0.8-1.1-1.8-1.5c-1.1-0.4-2.3-0.8-3.6-1.3c-2.7-1.1-4.7-1.8-6-2.3
		c-1.4-0.5-2.5-1.2-3.3-2.3c-6.7-9.7-13.5-19.2-20.5-28.6c-6.9-9.4-14-18.8-21.2-28.2c-0.9-1.1-2.4-1.7-4.6-1.7
		c-2.2,0-4.2,0.2-6,0.7c-1.5,0.4-2.8,1.2-4,2.4c-1.2,1.1-1.8,2.5-1.9,4c-0.6,12-1.1,23.7-1.3,35.3c-0.2,11.6-0.6,23.2-1,35
		c-0.1,1.7-0.8,3.7-2.2,5.8c-1.3,2.1-2.8,4.4-4.5,6.7c0.4,1.1,0.7,1.8,1.2,2.3c0.4,0.5,1.2,0.6,2.3,0.2c6.4-2.1,12.8-4.2,19.3-6.3
		c2.3-0.7,3.1-2.1,2.4-4.2c-0.4-1.2-1.8-1.8-4.2-2c-2.3,0-3.8-1-4.4-3c-0.4-1.3-0.7-4.1-0.9-8.2c-0.2-4.1-0.1-9.6,0.4-16.5
		c0.3-6.1,0.7-11.3,1-15.7c0.3-4.4,0.7-7.8,1.1-10.2c0.5,0.7,1.6,2,3.2,4c1.6,2,3.3,4.1,5.1,6.4c1.8,2.3,3.4,4.5,4.9,6.6
		c1.5,2.1,2.5,3.6,2.8,4.4c-0.5,1-1.6,1.7-3.3,2.2c-1.7,0.5-3.2,0.9-4.5,1.3c-2.5,0.7-4.2,1.6-5.3,2.5c-1.1,0.9-1.4,2.2-0.9,3.8
		c0.6,1.8,2.1,2.7,4.7,2.7c2.8,0,5.8-0.9,9-2.7c2.6-0.9,5.1-1.4,7.5-1.6c2.3,3.4,4.6,6.7,6.9,10.1c0.7,1,0.7,2.1,0,3.3
		c-0.7,1.3-1.9,2.5-3.7,3.7c-1.5,1.1-2.1,2.2-1.7,3.5c0.6,2.1,2.1,2.8,4.4,2.2c10.8-3.1,21.6-6.1,32.4-8.9
		C216,155.7,216.8,154.4,216.2,152.2z"/>
	<path class="st0" d="M281.1,141.3c0.9,0.1,1.7,0,2.5-0.2c0.8-0.2,1.6-0.5,2.3-0.9c0.8-0.4,1.4-0.9,1.8-1.5c0.4-0.3,0.4-1.7,0.1-4.3
		c-0.3-2.6-0.8-5.9-1.5-9.9c-0.7-4.1-1.5-8.6-2.5-13.7c-0.9-5-2-10.1-3-15.2c-1.1-5.1-2.1-10-3.1-14.8c-1-4.7-1.8-8.9-2.5-12.4
		c-0.4-2.2,0.7-4,3.2-5.4c2.6-1.2,3.7-2.5,3.5-3.9c-0.4-2.2-1.7-3.1-4-2.6c-6.9,1.3-13.7,2.6-20.6,4c-2.2,0.4-3,1.7-2.6,3.9
		c0.3,1.3,1.3,2,3.2,2.3c3.8,0.6,5.9,1.8,6.3,3.8c1.7,9,3,15.9,4,20.8c1,4.9,1.7,8.5,2.2,10.8c0.5,2.3,0.8,3.7,0.9,4.2
		c0.1,0.5,0.2,0.8,0.2,0.9c-2.2-1.5-5-3.5-8.3-6.1c-3.3-2.6-6.7-5.3-10.4-8.2c-3.7-2.9-7.4-5.8-11.2-8.8c-3.8-3-7.3-5.6-10.5-7.9
		c-3.2-2.3-6.1-4.1-8.5-5.5c-2.4-1.3-4-1.9-4.8-1.7c-5.9,1.4-11.9,2.9-17.8,4.3c-2.2,0.5-3,1.9-2.4,4c0.4,1.5,2,2.2,4.8,2.2
		c2.9,0.2,4.6,1.4,5.1,3.5c4.9,19.9,9.9,39.7,14.8,59.6c0.6,2.2-0.3,4-2.7,5.3c-2.3,1.5-3.3,2.9-3,4.2c0.5,2,1.8,2.8,3.8,2.3
		c6.4-1.6,12.9-3.2,19.3-4.7c2-0.5,2.8-1.7,2.3-3.8c-0.3-1.4-1.8-2.2-4.6-2.5c-2.7-0.1-4.3-1.2-4.8-3.4c-3.5-14.8-7-29.7-10.4-44.5
		c10.5,6.6,20.5,13.9,30.1,21.7c9.6,7.9,18.4,15.5,26.6,22.9C279.5,140.9,280.2,141.2,281.1,141.3z"/>
	<path class="st0" d="M293.1,65.7c2.7,0.3,4.1,1.2,4.4,2.7c2.9,17.3,5.9,34.5,8.8,51.8c0.4,2.1-0.3,4-2,5.6
		c-1.7,1.7-2.4,2.8-2.3,3.4c0.5,3,5.6,4.4,15.2,4.5c6.9,0.1,13.1-0.2,18.6-1c13.7-2,24.4-7,32.3-15.2c8.4-8.7,12.1-19.5,10.7-32.7
		c-1.5-14.2-6.8-24.5-16.2-30.8c-9.4-6.3-22-8.4-37.6-6.2c-5.8,0.8-12.8,2.6-21,5.4c-10.7,3.7-15.8,7-15.3,9.8
		C288.9,64.5,290.4,65.4,293.1,65.7z M320.5,58.9c2.1-1.5,4.6-2.5,7.4-2.9c9.6-1.4,17.2,1.8,22.7,9.3c4.2,5.7,6.9,13.4,8,23.2
		c1,8.4-0.1,15.7-3.4,22c-3.7,7.4-9.6,11.6-17.8,12.7c-2.6,0.4-4.9,0.2-7-0.5c-2.6-0.8-4.1-2.4-4.3-4.7c-2.7-17.7-5.4-35.3-8.1-53
		C317.6,62.5,318.4,60.5,320.5,58.9z"/>
	<path class="st0" d="M379.8,47.3c1.3,0.8,2.8,1.6,4.4,2.5c1.6,0.9,3.1,1.9,4.5,2.9c1.4,1,2.3,1.9,2.5,2.6
		c4.2,5.2,8.2,10.9,12.1,17.3c3.9,6.3,7.5,12.5,11.1,18.5c0.5,6.9,1,13.8,1.5,20.8c0.2,2.4-0.7,4-2.6,4.7c-3,1.3-4.5,2.5-4.4,3.5
		c0.2,2.2,1.8,3.2,4.7,3c8.7-0.7,17.4-1.2,26.2-1.7c2.9-0.2,4.3-1.3,4.1-3.5c-0.1-1.2-1.7-2.2-4.8-3.1c-2-0.5-3.1-1.9-3.2-4.2
		c-0.4-7.3-0.8-14.6-1.2-21.8c-0.1,0.2,0.3-0.6,1.1-2.6c0.8-1.9,1.8-4.3,3-7.2c1.2-2.9,2.5-6,4-9.3c1.5-3.3,2.9-6.5,4.1-9.3
		c1.2-2.9,2.3-5.2,3.1-7.1c0.8-1.8,1.2-2.7,1.1-2.5c0.2-0.8,0.9-1.9,2.3-3.1c1.3-1.3,2.7-2.5,4.1-3.6c1.4-1.2,2.7-2.2,3.9-3
		c1.1-0.8,1.6-1.3,1.4-1.3c-0.1-1.9-1.7-2.8-4.9-2.7c-7.7,0.3-15.4,0.6-23.1,1c-3.1,0.2-4.6,1.4-4.4,3.6c0.1,1.2,1.1,2.1,3.1,2.7
		c2.6,1,3.9,2.1,4,3.4c0.1,1.1-0.4,3-1.3,5.6c-0.9,2.6-2,5.4-3.2,8.3c-1.2,2.9-2.5,5.7-3.7,8.4c-1.2,2.6-2.2,4.6-2.9,5.8
		c-0.7-1-1.8-2.7-3.3-5.3c-1.5-2.6-3.1-5.3-4.7-8.2c-1.6-2.9-3-5.6-4.3-8.1c-1.3-2.5-1.9-4.2-2-5.1c-0.1-1.7,0.7-2.9,2.4-3.7
		c2.9-0.9,4.3-2,4.2-3.3c-0.1-2.1-1.8-3.1-4.8-2.8c-10.8,0.8-21.6,1.7-32.3,2.7c-1.5,0.2-2.7,0.5-3.5,1.2c-0.8,0.6-0.9,1.4-0.3,2.4
		C377.7,46,378.4,46.5,379.8,47.3z"/>
	<path class="st0" d="M562.6,120.3c8.3,2,15.9,3.2,22.8,3.7c7.2,0.5,13.6,0.5,19.2-0.2c5.6-0.6,10.5-2,14.6-4.2
		c4.1-2.2,7.4-5.2,9.8-9.1c2.5-3.9,4.1-8.9,4.8-14.9c0.4-3.4,0.1-6.5-0.9-9.4c-1-2.8-2.5-5.4-4.4-7.8c-1.9-2.3-4.2-4.4-6.9-6.3
		c-2.7-1.8-5.5-3.5-8.4-5c0.1-0.6,0.1-1.2,0.2-1.8c2.6-0.6,5-1.5,7.4-2.7c2.4-1.2,4.6-2.7,6.4-4.4c1.9-1.7,3.5-3.7,4.7-5.8
		c1.3-2.1,2.1-4.4,2.3-6.8c0.5-4.7-0.3-8.7-2.6-12.1c-2.3-3.4-5.4-6.2-9.3-8.5c-3.9-2.3-8.3-4.1-13.2-5.2c-4.9-1.2-9.6-1.9-14.3-2.3
		c-1.1-0.1-3.1-0.1-5.9-0.1c-2.8,0-6,0.1-9.5,0.2c-3.6,0.1-7.3,0.4-11.2,0.8c-3.9,0.4-7.5,0.9-10.7,1.7c-3.2,0.7-5.9,1.6-8,2.6
		c-2.1,1-3.2,2.2-3.2,3.7c-0.1,1.9,1.5,3.5,4.7,4.7c3.3,1,4.9,2.5,4.8,4.3c-1,21.9-2,43.7-2.9,65.6c-0.1,2.7-1.4,4.9-3.9,6.5
		c-2.5,1.6-3.7,2.7-3.7,3.3C545.1,114.4,550.9,117.5,562.6,120.3z M581.9,36.9c0.2-3,1.7-5.3,4.5-6.7c2.8-1.5,5.9-2.1,9.5-1.8
		c2.3,0.2,4.3,0.8,6,1.9c1.6,1.1,2.9,2.4,3.8,4c0.9,1.6,1.6,3.3,2,5.2c0.4,1.9,0.5,3.8,0.3,5.6c-0.3,3.3-1.3,6.2-3.2,8.7
		c-1.8,2.5-4.5,4.5-8.1,5.9c-3.4,1.2-6.1,2.4-8.1,3.5c-2,1.1-3.1,2-3.1,2.7c-0.1,0.8,1,1.8,3,3c2.1,1.2,5.2,2.9,9.5,5.2
		c3.6,1.9,6.4,4.5,8.3,7.8c1.9,3.3,2.6,7.4,2.2,12.2c-0.3,2.8-0.8,5.4-1.7,7.8c-0.9,2.4-2,4.4-3.5,6.1c-1.5,1.7-3.3,3-5.5,3.8
		c-2.2,0.9-4.7,1.2-7.6,1c-1.4-0.1-2.9-0.4-4.5-0.8c-1.5-0.4-2.9-1-4.2-1.7c-1.3-0.7-2.3-1.7-3-2.8c-0.8-1.1-1.1-2.5-1-4.1
		C578.9,81.4,580.4,59.2,581.9,36.9z"/>
	<path class="st0" d="M638.7,128.2c17.6,2.1,35.1,4.7,52.6,7.6c0.3,0.1,1.1,0,2.3-0.1c1.2-0.1,2.3-0.5,3.1-1.1
		c0.7-0.6,1.6-1.5,2.5-2.6c0.9-1.2,1.8-2.4,2.7-3.6c0.9-1.2,1.6-2.3,2.2-3.4c0.6-1,1-1.8,1-2.3c0.2-0.9-0.1-1.6-0.7-2.2
		c-0.6-0.6-1.4-0.9-2.4-1c-0.3-0.1-1.1,0.3-2.3,1c-1.2,0.7-2.8,1.7-4.6,2.9c-1.6,1.1-3.3,1.8-5.3,2.1c-2,0.3-4,0.4-6,0.2
		c-2.6-0.3-5.2-0.7-7.9-1.2c-2.7-0.5-5-0.9-6.8-1.3c-1.6-0.3-2.9-0.7-3.7-1.1c-0.8-0.4-1.1-1.7-0.8-3.8c1.2-8.7,2.5-17.4,3.7-26.1
		c0.2-1.7,1.1-2.6,2.4-2.9c1.4-0.2,2.5-0.2,3.3-0.1c0.1,0,1,0.2,2.7,0.6c1.7,0.4,3.5,0.8,5.5,1.1c2.5,0.4,4.6,0.4,6.2-0.1
		c1.6-0.5,2.5-1.7,2.9-3.7c0.3-2-0.2-3.5-1.5-4.4c-1.3-1-3.2-1.6-5.5-2c-1.1-0.2-2.5-0.3-4.2-0.4c-1.7-0.1-3.1-0.2-4-0.4
		c-1.9-0.3-3.7-0.9-5.4-1.9c0-0.1,0-0.4,0-0.8c0-0.4,0.1-1.2,0.3-2.3c0.2-1.1,0.4-2.8,0.6-5.1c0.3-2.2,0.7-5.3,1.2-9.2
		c0.2-1.4,0.8-2.4,1.9-3.1c1-0.7,3.1-0.8,6.3-0.3c3.8,0.6,6.8,1.1,9,1.5c2.2,0.4,4.1,1.1,5.6,1.8c1.5,0.8,3,1.7,4.3,2.9
		c1.3,1.2,3,2.9,5.2,5.1c0.6,0.6,1.1,0.9,1.7,0.9c0.6,0,1.1-0.1,1.6-0.3c0.5-0.2,0.9-0.6,1.3-1c0.4-0.4,0.6-0.8,0.6-1.1
		c0.3-1.5,0.2-3-0.1-4.6c-0.3-1.6-0.9-3.1-1.6-4.4c-0.7-1.3-1.6-2.5-2.6-3.4c-1-0.9-2.2-1.5-3.5-1.7c-17.8-3-35.7-5.6-53.7-7.7
		c-2.2-0.3-3.4,0.7-3.7,2.8c-0.1,0.8,0.3,1.5,1.1,2c0.8,0.6,1.7,1.1,2.6,1.8c0.9,0.6,1.8,1.3,2.6,2.1c0.8,0.8,1.1,1.8,0.9,3
		c-2.5,20.3-5.1,40.5-7.6,60.8c-0.2,1.3-0.7,2.2-1.6,2.8c-0.9,0.6-1.9,1-2.8,1.3c-1,0.3-1.9,0.6-2.8,0.9c-0.9,0.3-1.3,0.8-1.4,1.5
		c-0.1,1.1,0,2,0.5,2.7C637,127.6,637.7,128.1,638.7,128.2z"/>
	<path class="st0" d="M705.8,137.4c0.1,0.6,0.8,1.1,1.9,1.3c6.6,1.2,13.2,2.5,19.8,3.8c2.3,0.5,3.7-0.4,4.2-2.5
		c0.2-1.2-0.7-2.4-2.7-3.8c-2-1.1-2.8-2.7-2.4-4.8c0.3-1.4,1.3-3.9,3.1-7.6c1.8-3.7,4.5-8.4,8.2-14.3c3.2-5.2,6.1-9.6,8.4-13.3
		c2.4-3.7,4.3-6.5,5.8-8.4c0.1,0.9,0.5,2.5,0.9,5.1c0.5,2.5,0.9,5.2,1.3,8.1c0.4,2.9,0.8,5.6,1.1,8.2c0.3,2.6,0.4,4.3,0.3,5.2
		c-0.9,0.6-2.2,0.7-3.9,0.3c-1.7-0.4-3.2-0.8-4.6-1.1c-2.5-0.5-4.4-0.7-5.9-0.4c-1.4,0.3-2.3,1.2-2.6,2.9c-0.4,1.9,0.5,3.4,2.8,4.6
		c2.4,1.3,5.5,2,9.1,2c2.7,0.5,5.1,1.2,7.3,2.2c0.4,4.1,0.8,8.1,1.1,12.2c0.2,1.2-0.4,2.1-1.6,2.9c-1.2,0.7-2.9,1.2-5,1.5
		c-1.9,0.2-2.9,0.9-3.2,2.2c-0.5,2.2,0.4,3.5,2.8,4c10.9,2.5,21.8,5.1,32.6,7.8c2.2,0.6,3.6-0.2,4.1-2.4c0.2-0.6-0.1-1.3-0.9-2.2
		c-0.7-0.9-1.6-1.8-2.5-2.9c-1.8-2.2-3.2-3.9-4.2-4.9c-1-1.1-1.6-2.3-1.8-3.6c-1.2-11.7-2.6-23.3-4.1-34.9
		c-1.5-11.6-3.2-23.2-4.9-35c-0.3-1.4-1.3-2.6-3.2-3.7c-1.9-1.1-3.7-1.8-5.6-2.2c-1.5-0.3-3.1-0.3-4.6,0.2c-1.6,0.4-2.8,1.3-3.6,2.6
		c-6.3,10.2-12.4,20.3-18.1,30.3c-5.7,10-11.7,20.1-17.7,30.2c-0.9,1.5-2.5,2.8-4.7,4c-2.2,1.2-4.6,2.5-7.1,3.8
		C705.6,135.9,705.6,136.8,705.8,137.4z"/>
	<path class="st0" d="M860.1,157.7c-0.4-0.5-1-0.8-1.7-0.9c-0.8-0.2-5.2,0.7-13.1,2.6c-2.1,0.5-4.3,0.8-6.3,0.8
		c-2.1,0-4.1-0.2-6-0.8c-7.6-2.3-12.1-7.6-13.6-15.9c-1-5.7-0.2-13.3,2.4-22.7c2.3-8,5.2-14.2,8.9-18.5c5.2-6.5,11.3-8.7,17.9-6.7
		c2.4,0.7,4.6,1.8,6.5,3.1c1.9,1.3,3.6,2.8,5,4.5c2.5,3,5.2,6.6,7.8,10.8c1.4,0.4,2.5,0.6,3.5,0.4c1-0.2,1.6-0.7,1.9-1.7
		c0.3-1.1,0.6-2.5,0.7-4.3c0.1-1.8,0.1-4-0.1-6.6c-0.4-5.6-1.8-8.8-4.1-9.6c-0.1,0-0.5,0-1,0c-0.6,0-1.3,0.1-2,0.2
		c-0.7,0.1-1.4,0.2-2,0.3c-0.6,0.1-1,0.2-1.1,0.3c-0.5-0.2-1.3-0.4-2.2-0.8c-0.9-0.4-1.9-0.8-2.9-1.4c-2.2-1.1-4.1-2-5.6-2.6
		c-1.5-0.6-2.6-1-3.4-1.2c-12.3-3.6-23.1-2.1-32.1,4.4c-8.2,6.1-13.6,14.7-16.4,25.5c-2.9,11.1-2.2,21.3,1.9,30.6
		c4.5,10,12.5,16.6,24.4,20.1c5.1,1.5,11.3,1.8,18.6,1c4.3-0.4,7.5-1.1,9.7-2c2.2-0.9,3.6-2,4.3-3.2c0.7-1.3,1-2.1,1.1-2.6
		c0-0.5,0-1-0.2-1.6C860.8,158.7,860.5,158.2,860.1,157.7z"/>
	<path class="st0" d="M967.5,128.6c-9.7-4-19.4-7.8-29.1-11.5c-2.1-0.8-3.5-0.2-4.3,1.8c-0.5,1.4,0.4,2.9,2.7,4.6
		c2.2,1.8,2.9,3.7,2.1,5.7c-2.2,5.8-4.5,11.5-6.7,17.3c-0.6,1.5-1.7,1.9-3.3,1.3c-7.4-2.9-14.9-5.6-22.4-8.3
		c-1.6-0.6-2.2-1.6-1.6-3.2c2.1-5.8,4.2-11.6,6.3-17.5c0.7-2,2.5-2.9,5.5-2.8c2.9,0.3,4.5-0.3,5.1-1.7c0.7-2,0-3.4-2.1-4.1
		c-9.8-3.6-19.6-7-29.4-10.3c-2.1-0.7-3.5-0.1-4.2,1.9c-0.5,1.4,0.5,2.9,2.9,4.5c2.3,1.6,3,3.5,2.3,5.6
		c-6.6,19.4-13.1,38.8-19.7,58.2c-0.7,2.2-2.4,3.2-5,3.1c-2.8,0-4.4,0.7-4.8,1.9c-0.7,2,0,3.3,2,4c9.2,3.1,18.3,6.3,27.4,9.6
		c2,0.7,3.3,0.1,4-1.9c0.5-1.3-0.3-2.9-2.5-4.6c-2.2-1.6-3-3.4-2.2-5.5c3.2-9,6.5-18.1,9.7-27.1c0.4-1.2,1.5-1.6,3.2-1.3
		c7.4,2.7,14.8,5.4,22.2,8.3c1.5,0.8,2.1,1.8,1.6,3c-3.5,9-6.9,17.9-10.4,26.9c-0.8,2.1-2.5,3-5.1,2.7c-2.8-0.1-4.4,0.5-4.9,1.8
		c-0.7,2-0.1,3.3,1.8,4.1c9.1,3.5,18.1,7,27.1,10.7c1.9,0.8,3.3,0.2,4.1-1.7c0.5-1.2-0.3-2.7-2.4-4.6c-2.2-1.6-2.8-3.5-2-5.7
		c7.7-19,15.4-37.9,23.1-56.9c0.8-2,2.7-2.8,5.6-2.6c2.8,0.4,4.6-0.1,5.1-1.5C970.2,130.8,969.5,129.4,967.5,128.6z"/>
	<path class="st0" d="M224.7,329.2c0.9-0.7,2.3-1,4.2-1c3.7,0,8.2,1.2,13.4,3.5l4.6-11.5c-5.9-2.6-11.8-4-17.5-4
		c-6.5,0-11.5,1.4-15.2,4.3c-3.7,2.8-5.5,6.8-5.5,11.9c0,2.7,0.4,5.1,1.3,7.1c0.9,2,2.2,3.7,4,5.3c1.8,1.5,4.5,3.1,8.1,4.8
		c4,1.8,6.4,3,7.3,3.5c0.9,0.6,1.6,1.2,2,1.7c0.4,0.6,0.6,1.2,0.6,2c0,1.2-0.5,2.2-1.5,3c-1,0.8-2.7,1.2-4.9,1.2
		c-2.6,0-5.4-0.4-8.5-1.2c-3.1-0.8-6-2-8.9-3.4v13.3c2.7,1.3,5.3,2.2,7.8,2.7c2.5,0.5,5.6,0.8,9.2,0.8c4.4,0,8.2-0.7,11.5-2.2
		c3.3-1.5,5.8-3.5,7.5-6.2s2.6-5.7,2.6-9.1c0-3.7-0.9-6.8-2.8-9.3s-5.1-4.7-9.9-6.9c-5-2.3-8-3.8-9.1-4.7c-1.1-0.9-1.7-1.8-1.7-2.9
		C223.4,330.7,223.8,329.9,224.7,329.2z"/>
	<path class="st0" d="M280.2,316.2c-8.8,0-15.4,2.4-20,7.3c-4.6,4.8-6.9,11.9-6.9,21c0,9.3,2.3,16.3,6.9,21.2
		c4.6,4.9,11.2,7.3,19.9,7.3c8.8,0,15.4-2.4,20-7.2c4.6-4.8,6.8-11.9,6.8-21.2c0-9.3-2.3-16.4-6.8-21.2
		C295.7,318.6,289,316.2,280.2,316.2z M288.6,356.6c-1.8,2.6-4.6,3.9-8.4,3.9c-7.4,0-11.1-5.3-11.1-16c0-10.8,3.7-16.1,11.2-16.1
		c3.7,0,6.4,1.3,8.3,3.9c1.8,2.6,2.8,6.7,2.8,12.2C291.3,350,290.4,354.1,288.6,356.6z"/>
	<polygon class="st0" points="312.9,329.2 326.4,329.2 326.4,372.2 341.3,372.2 341.3,329.2 354.7,329.2 354.7,317 312.9,317 	"/>
	<polygon class="st0" points="386.9,372.2 386.9,329.2 400.3,329.2 400.3,317 358.5,317 358.5,329.2 372,329.2 372,372.2 	"/>
	<path class="st0" d="M433,372.9c8.8,0,15.4-2.4,20-7.2s6.8-11.9,6.8-21.2c0-9.3-2.3-16.4-6.8-21.2c-4.5-4.8-11.2-7.2-20-7.2
		c-8.8,0-15.4,2.4-20,7.3c-4.6,4.8-6.9,11.9-6.9,21c0,9.3,2.3,16.3,6.9,21.2C417.7,370.5,424.4,372.9,433,372.9z M433.1,328.4
		c3.7,0,6.4,1.3,8.3,3.9c1.8,2.6,2.8,6.7,2.8,12.2c0,5.5-0.9,9.5-2.7,12.1c-1.8,2.6-4.6,3.9-8.4,3.9c-7.4,0-11.1-5.3-11.1-16
		C421.9,333.8,425.6,328.4,433.1,328.4z"/>
	<path class="st0" d="M579.1,348v24.2h13.7V317h-19.9l-11.3,39.2h-0.3L549.9,317H530v55.2h13.2v-24c0-3.7-0.3-9-0.8-15.8h0.3
		l11.3,39.7h14.2l11.1-39.6h0.3c-0.3,6-0.5,9.7-0.5,11.3C579.1,345.4,579.1,346.7,579.1,348z"/>
	<path class="st0" d="M629.6,316.2c-8.8,0-15.4,2.4-20,7.3c-4.6,4.8-6.9,11.9-6.9,21c0,9.3,2.3,16.3,6.9,21.2
		c4.6,4.9,11.2,7.3,19.9,7.3c8.8,0,15.4-2.4,20-7.2c4.6-4.8,6.8-11.9,6.8-21.2c0-9.3-2.3-16.4-6.8-21.2
		C645,318.6,638.3,316.2,629.6,316.2z M637.9,356.6c-1.8,2.6-4.6,3.9-8.4,3.9c-7.4,0-11.1-5.3-11.1-16c0-10.8,3.7-16.1,11.2-16.1
		c3.7,0,6.4,1.3,8.3,3.9c1.8,2.6,2.8,6.7,2.8,12.2C640.6,350,639.7,354.1,637.9,356.6z"/>
	<path class="st0" d="M705.5,342c0,3.4,0.2,7.8,0.5,13.4h-0.2L685.7,317h-19.5v55.2h13.2v-24.9c0-3.2-0.2-7.9-0.7-14h0.3l20.1,38.9
		h19.5V317h-13.3V342z"/>
	<polygon class="st0" points="726.7,329.2 740.1,329.2 740.1,372.2 755,372.2 755,329.2 768.5,329.2 768.5,317 726.7,317 	"/>
	<polygon class="st0" points="776.4,372.2 809.1,372.2 809.1,360 791.3,360 791.3,349.6 807.8,349.6 807.8,337.7 791.3,337.7 
		791.3,329 809.1,329 809.1,317 776.4,317 	"/>
	<path class="st0" d="M385.2,460.3V460c1.9-0.5,3.5-1.5,4.7-3.2c1.2-1.6,1.8-3.6,1.8-5.9c0-3.5-1.4-6.1-4.1-7.8
		c-2.7-1.7-6.9-2.5-12.5-2.5h-14.4V482h16.1c4.9,0,8.7-1.1,11.5-3.2c2.8-2.2,4.2-5.1,4.2-8.9c0-2.5-0.6-4.6-1.7-6.2
		C389.6,462.1,387.7,461,385.2,460.3z M371.8,449.1h3.1c3.5,0,5.3,1.2,5.3,3.5c0,1.3-0.4,2.3-1.3,2.9s-2.1,1-3.7,1h-3.4V449.1z
		 M375.7,473.3h-3.9v-8.7h3.7c1.8,0,3.1,0.4,4.1,1.1c0.9,0.7,1.4,1.8,1.4,3.2C380.9,471.9,379.2,473.3,375.7,473.3z"/>
	<path class="st0" d="M408.7,440.4L395.2,482h12.3l2.1-7.8H423l2,7.8h12.2l-13.7-41.5H408.7z M411.9,465.1c1.7-6.5,2.8-10.8,3.3-13
		c0.5-2.2,0.8-3.8,1-4.8c0.2,1,0.6,2.8,1.2,5.1c0.6,2.4,1.1,4.3,1.5,5.9l1.8,6.8H411.9z"/>
	<path class="st0" d="M458.3,466.4h7.4v6.5c-1.4,0.3-2.9,0.5-4.6,0.5c-3,0-5.4-1-7-3c-1.6-2-2.4-5-2.4-8.8c0-3.9,0.9-7,2.7-9.1
		c1.8-2.1,4.3-3.2,7.6-3.2c3.6,0,6.8,0.7,9.8,2.2l3.5-8.8c-1.7-0.8-3.7-1.4-6-1.9c-2.3-0.5-4.8-0.7-7.4-0.7c-6.9,0-12.2,1.9-16,5.6
		c-3.8,3.7-5.7,8.9-5.7,15.6c0,6.8,1.7,12.1,5.2,15.8c3.5,3.7,8.4,5.5,14.8,5.5c5.8,0,11.1-0.8,16-2.5v-22.3h-17.9V466.4z"/>
	<path class="st0" d="M514,459.3c0,2.5,0.1,5.9,0.4,10h-0.2l-15.1-28.7h-14.6V482h9.9v-18.6c0-2.4-0.2-5.9-0.5-10.5h0.3l15.1,29.1
		H524v-41.4h-10V459.3z"/>
	<rect x="532.9" y="440.6" class="st0" width="11.2" height="41.4"/>
	<path class="st0" d="M584.3,454.4c-3.8,0-6.5,1.6-8.2,4.8h-0.3c0.2-3.7,1.2-6.4,3-8c1.8-1.6,4.6-2.5,8.3-2.5c2.2,0,4.3,0.2,6.1,0.5
		v-8.7c-2.2-0.3-4.2-0.5-5.9-0.5c-4.7,0-8.7,0.8-11.9,2.5c-3.2,1.7-5.6,4.3-7.3,7.9c-1.7,3.6-2.5,8.2-2.5,14
		c0,5.7,1.4,10.1,4.1,13.3c2.8,3.2,6.6,4.8,11.5,4.8c4.6,0,8.2-1.3,10.8-3.9c2.6-2.6,3.8-6.2,3.8-10.8c0-4.2-1-7.5-3-9.9
		C590.8,455.6,587.9,454.4,584.3,454.4z M583.9,472.3c-0.7,0.9-1.7,1.3-2.9,1.3c-1.3,0-2.3-0.6-3.1-1.7c-0.8-1.2-1.2-2.6-1.2-4.5
		c0-1.2,0.4-2.3,1.2-3.2c0.8-0.9,1.8-1.3,3.1-1.3c2.6,0,3.9,1.7,3.9,5C585,470,584.6,471.4,583.9,472.3z"/>
	<path class="st0" d="M600,452.2l5.8,7.1l4.7-3.9c1-0.9,1.9-1.8,2.6-2.7c-0.1,2.2-0.2,4.6-0.2,7.3V482h11.3v-41.4h-10.1L600,452.2z"
		/>
</g>
</svg>
